<svg width="30" height="30" viewBox="0 0 40 40" fill="none" xmlns="http://www.w3.org/2000/svg">
<path fill-rule="evenodd" clip-rule="evenodd" d="M0.483216 19.5698C0.490816 18.9255 1.01928 18.4094 1.66356 18.417L18.6448 18.6173L18.8451 1.63606C18.8527 0.991776 19.3812 0.47564 20.0255 0.48324C20.6697 0.49084 21.1859 1.0193 21.1783 1.66359L20.978 18.6448L37.9592 18.8451C38.6035 18.8527 39.1196 19.3812 39.112 20.0255C39.1044 20.6698 38.5759 21.1859 37.9317 21.1783L20.9504 20.978L20.7501 37.9592C20.7425 38.6035 20.2141 39.1196 19.5698 39.112C18.9255 39.1044 18.4093 38.576 18.4169 37.9317L18.6173 20.9505L1.63604 20.7501C0.991752 20.7425 0.475615 20.2141 0.483216 19.5698Z" fill="#8C94E2"/>
</svg>
