<svg width="34" height="31" viewBox="0 0 34 31" fill="none" xmlns="http://www.w3.org/2000/svg">
<path fill-rule="evenodd" clip-rule="evenodd" d="M17 2.58333C13.088 2.58333 9.91667 5.47483 9.91667 9.04167C9.91667 12.6085 13.088 15.5 17 15.5C20.912 15.5 24.0833 12.6085 24.0833 9.04167C24.0833 5.47483 20.912 2.58333 17 2.58333ZM7.08333 9.04167C7.08333 4.04809 11.5232 0 17 0C22.4768 0 26.9167 4.04809 26.9167 9.04167C26.9167 14.0352 22.4768 18.0833 17 18.0833C11.5232 18.0833 7.08333 14.0352 7.08333 9.04167Z" fill="#8C94E2"/>
<path fill-rule="evenodd" clip-rule="evenodd" d="M10.5373 16.5661C12.5896 15.8614 14.7853 15.5 17 15.5C19.2147 15.5 21.4104 15.8614 23.4627 16.5661C25.5151 17.2707 27.3882 18.3063 28.972 19.6191C30.5561 20.9321 31.8207 22.4976 32.6863 24.2298C33.5521 25.9624 34 27.8244 34 29.7083C34 30.4217 33.3657 31 32.5833 31C31.8009 31 31.1667 30.4217 31.1667 29.7083C31.1667 28.1998 30.8084 26.7025 30.108 25.3009C29.4073 23.8988 28.3762 22.6165 27.0661 21.5306C25.7558 20.4445 24.1931 19.5773 22.4642 18.9837C20.7353 18.3901 18.8782 18.0833 17 18.0833C15.1218 18.0833 13.2647 18.3901 11.5358 18.9837C9.80686 19.5773 8.24417 20.4445 6.93387 21.5306C5.62384 22.6165 4.59268 23.8988 3.89203 25.3009C3.1916 26.7025 2.83333 28.1998 2.83333 29.7083C2.83333 30.4217 2.19907 31 1.41667 31C0.634263 31 0 30.4217 0 29.7083C0 27.8244 0.447879 25.9624 1.31372 24.2298C2.17935 22.4976 3.4439 20.9321 5.02797 19.6191C6.61176 18.3063 8.48485 17.2707 10.5373 16.5661Z" fill="#8C94E2"/>
</svg>
